# xmcd CD database file
#
# Track frame offsets:
#	150
#	19965
#	36382
#	67510
#	89517
#	115282
#	141197
#	162672
#	187372
#	211515
#
# Disc length: 3140 seconds
#
# Revision: 0
# Processed by: cddbd v1.5.1PL2 Copyright (c) Steve Scherf et al.
# Submitted via: CDex 1.50
#
DISCID=8f0c420a
DTITLE=Various Artist - Jazz in the Wee Small Hours
DYEAR=1900
DGENRE=Jazz
TTITLE0=Everett Greene - Everything I Have Is Yours
TTITLE1=Gloria Lynne - In The Wee Small Hours Of The Morning
TTITLE2=Freddy Cole - This Love Of Mine
TTITLE3=Wesla Whitfield - Teach Me Tonight
TTITLE4=Etta Jones - All The Way
TTITLE5=Della Griffin - You Go To My Head
TTITLE6=Ernie Andrews - I Want To Be Loved
TTITLE7=Dakota Staton - Too Late Now
TTITLE8=Carol Sloane - Memories Of You
TTITLE9=Irene Reid - All My Tomorrows
EXTD=
EXTT0=
EXTT1=
EXTT2=
EXTT3=
EXTT4=
EXTT5=
EXTT6=
EXTT7=
EXTT8=
EXTT9=
PLAYORDER=
